<?xml version="1.0"?><svg baseprofile="tiny" fill="#ececec" stroke="black" stroke-linecap="round" stroke-linejoin="round" stroke-width="1" version="1.2" viewBox="0 0 1000 1003" xmlns="http://www.w3.org/2000/svg">
 <g id="combinedSeattleSVG">
  <path d="M332.7 362.9l5.3 5.8 6.2 12.1 20.2 9.2 2.3-1 2.7 0.5 7.8 5.1 6.6 3.9 3.4 5.1-0.3 10.8 4 4.7-8.2 0.1 5.4 10.4-0.1 6.2 3.7 0-0.6 23 0.1 14.1 2.8 8.1-17.3-0.1-7.2 3.4 3.1 5.1-4.5 2.1-7.2-2-17.9-10-21.1-17.6-7.4-14 0.9-12-7.2-13.6-17.1-18-14.4-8.4 23.2-9 5.7-5.8 13.8-12 13.5-3.4-0.2-2.8z" id="98199" name="98199">
  </path>
  <path d="M544.8 438.9l-11.7 0.9-4-0.2 0.4-17 15.4 11.4-0.1 4.9z" id="98195" name="98195">
  </path>
  <path d="M369.4 389.5l-2.7-0.5-2.3 1-20.2-9.2-6.2-12.1-5.3-5.8-0.3-4.5-0.3-4.5 0-0.5 6.6 0 1.9-3.2 0.7 5.2 3.2-2 10.4-0.1 10.9-0.1 0 2.1 5.8-0.1 0-2.1 10.9-0.1 0 2 5.3 0 0-2.1 6.6 0 0 2.2 5.4 0 0.2-2.2 37.8 0-0.5 16.1 2.4 1.1-1.8 11.8 0.4 36.8-0.9 6-3.5-1.6 10 8.2-12.3-8.9-13.8-10.6-17.6-8.7-8.9-2.3-14.3-9.4-7.6-1.9z" id="98107" name="98107">
  </path>
  <path d="M428 524.4l4.9 1.2 5.1 0 7.1 2.7 2.1-2.7 37.5 0.2 0 3.2-19.9 22.5-4.4 0 2.8 2.6-16.6-13-5.5-5-8.2-7.4-4-3.5-0.9-0.8z" id="98121" name="98121">
  </path>
  <path d="M486.2 561.1l1.4 2.1-3.6-0.7 2.2-1.4z" id="98154" name="98154" fill="red">
  </path>
  <path d="M372.6 489.4l-3.1-5.1 7.2-3.4 17.3 0.1-2.8-8.1-0.1-14.1 0.6-23-3.7 0 0.1-6.2-5.4-10.4 8.2-0.1-4-4.7 0.3-10.8-3.4-5.1-6.6-3.9-7.8-5.1 7.6 1.9 14.3 9.4 8.9 2.3 17.6 8.7 13.8 10.6-0.5 3.4 7.2 4.2-1 0 1.7 10.5-0.1 16.4-2.7 0 0 5.6 2.7 0-0.1 10.9-2.7 0 0.8 14-0.2 12.4 2.7 0-0.1 15.3-2.7-0.1 1.4 10.6-5.1 0-4.9-1.2-4.5-4-9.6-12.2-1.9-2.4-15.7-4-11.8 0.6-0.5-16.7-4.1 0.4-7.3 3.3z" id="98119" name="98119">
  </path>
  <path d="M515.2 594.1l4.1 0 0.1-13.4 0.5-1.7 16.2 0 0 2.5 2.6 0 0.1-5 6.7 2.5 1.2-2.5 7.6 0 0 2.4 6.5-2.3 64.1 1-3.4 41.9 0.7 10.8 3.3 13.2 7.5 9.8-31.4 16.1-2.1 2.2-10.5-1.9 0 2.7-15.9 0-2.8-1.3-7 1-2.4-5.1 0-1.3-4.9-1.7 0 9-5.3-4.2 0-2.9-19.5 0-4.1 2.6-0.1 6.2-3.9-0.1-2.1-3.4-6.5 0.5-0.8 4.2-0.2-11.5 0.4-10.6 1.9-9.8-2.2-20.6 5.6 7.1-1.4-8 1.4-10.9-6.2-3.9-0.4-2.9 2.6-10.7z" id="98144" name="98144">
  </path>
  <path d="M480.8 567.4l2.3-1.4 1.3 2.2-2.3 1.4-1.3-2.2z" id="98174" name="98174">
  </path>
  <path d="M487.6 563.2l2.2-1.4 1.3 2.2-2.2 1.4-1.3-2.2z" id="98164" name="98164">
  </path>
  <path d="M463.2 554.1l-2.8-2.6 4.4 0 19.9-22.5 0-3.2 9 0.3 3.2-0.1 0.9-0.1-0.1 13.4 2.1 3.3 7.6 2.4-0.9 3.5-20.3 12.6-2.2 1.4-9 5.5-0.4-0.1-3.3-1.5-1.6-0.6-1.2 2.8-4.6-12.5-0.7-2z" id="98101" name="98101">
  </path>
  <path d="M494.9 276.3l1.5-5.3 2.6 0.1 0 5.4 55.9 0.6 18.3 1.5 10.7-1.2 0.1 2.7 4.5 0.3-2.4-7.7 5 4.7 16.7-0.1-1.5-5.4 2.3 0.1 1.8 5 1.8 11.6 25.8-1 7.4 2.4 8.1 9.8 31.1 12 4.3 0.8 4.1 0.8 2.4 14.8-0.4 9.9 1.2 11.3 0.6 25.5-1.1 8.1-3.4 6.7-36.5-27.9-7.1-4.4-5.8 7.3-35.6-0.2-2.6 1.1 0.9-4.5-9.8 3.4-24.2 0 0 5.5-2.4 0 0-5.5-20.9 0.1 3.6 6 0 4.8-4.5 1.5-1.5-6.3-4.8-1.7 0-5.8-7.9-4.1-3.1 0 0 5.6-2.2 2.7-8.8-3.2-3.3 0.2-13.2-0.2-0.1 2.2-5.4-0.1 0-2.1 0.1-11-3-0.1 0.3-4.8 7.7-6.5-1.5-3.9-6.4-4.9 2.6-1.8-0.1-10.9 4.2 0.2-3.8-5-2-5.8 0.1-2.3 0.1-7.2-1.9-23.8 1.4 0z" id="98115" name="98115">
  </path>
  <path d="M435.3 46.2l0.9 6.9 1.9 0-0.4 13.2-2.1 1.9 0.1 10.9 2 0-1.8 5.7-0.1 28.3 2.8 0.2 0.3 4.6-3 7.7-5.6-6.8 0-6.8-6.7 1-1.2 4.2-9.1 4.3-2.8 5.6 4.4 1.3 3 4.2 6.5 2.1 5.3 5.1 7.4 1.3 4.3 3.8-6.5 0 0.1 10.9 6.5 0.1 0.1 21.9-7.3 0 1.9 5.4 0 21.9 2.8 11-2.8-0.1 1.6 16.5-0.6 16 1.9 5.8-2.7 0 0.5 13.2-5.8 0 0 2.1 10.8 0.1 0 4.3-5.4 2.2-8.8-0.2-4.6 3.5 0-3.4-27.9-0.2-5.8 1.6-3.7-2-4.3 1.6-4.6-1.1-11.6-0.2 15.4-8.9 10.6-13.8-1.4-8.8 9.5-13.5 0.3-18.2 6.4-20-3.5-14.9-3.1-12.9-12.7-28.3 3.1-20.6 1.8-11.7-12.2-14.5-3-3.5-2.5-7.3-11.1-16 1.7-5-1.5-9.7-1.7-2.5 74 0.5z" id="98177" name="98177">
  </path>
  <path d="M533.1 439.8l11.7-0.9 8.9 0.2 30.9-0.5 57 0.9-4.4 13.8-1.1 6.8-2.9 35.1-2.4 11.8-23.4-2.3-13-2.1-2.9 4.6 0 5 4.2 5.5 0 13.4-6.1 0.9 0-3.3-6.4-2.4-10 0.1-1.2-1.6-22.9-0.2-4.5 1.3-22-0.8-0.1-16.5 2.2-12.5-7-0.1-0.1-4.3 3.2-5.9 6.1 0.1 2.1-5.9-2.3-6.7-7.3-0.2-0.3-3.6 4.3 0-1.6-6.9 0-3.6-3.9-0.3 0-5.2 4.7 3.1 4 5.6 1.1-1-0.8-3.1-1.9-1.9 1.2-1.6 1-2.6 5.1-0.2 0.8-12z" id="98112" name="98112">
  </path>
  <path d="M624.9 577.6l-64.1-1-6.5 2.3 0-2.4-7.6 0-1.2 2.5-6.7-2.5-0.1 5-2.6 0 0-2.5-16.2 0-7.7-2.6 0-16.6-1.4 0.8-1.3-2.1 2.3-1.4-0.8-2.7-2.8 2-1.3-2.2 5.3-3.3 0-2.9-2.1 1.3-2.7-4.3-7.6-2.4-2.1-3.3 0.1-13.4 7.3-3.2 0.5 3.2 6.4-0.7 10.6-0.1 22 0.8 4.5-1.3 22.9 0.2 1.2 1.6 10-0.1 6.4 2.4 0 3.3 6.1-0.9 0-13.4-4.2-5.5 0-5 2.9-4.6 13 2.1 23.4 2.3-2.8 35.1-3.1 35.5z" id="98122" name="98122">
  </path>
  <path d="M374.3 598.4l4.7-2.4 3.9 1.2 1.7 2.3 4.1 12.7-0.7 3.1 4.1 2.4 1.9 9.2-6.5 11.3 2.1-0.1-0.3 16.8 1.1 16.2 1.5 5.5-2.9 5.9 0 5.2 2.9 0 0 5.4-2.7 0-0.1 10.9 2.7 5.2-2.7 0.2-34.9-0.2-6.8 2.4-0.6-1.8-3.7-6.8-11.3-20.8 0-1-0.2-6.3-22.9-21.3 12.4-7.5 26.7-16.2 11.8-14 9.2-11 0.3-0.3 5.2-6.2z" id="98116" name="98116">
  </path>
  <path d="M437.8 352.9l-37.8 0-0.2 2.2-5.4 0 0-2.2-6.6 0 0 2.1-5.3 0 0-2-10.9 0.1 0 2.1-5.8 0.1 0-2.1-10.9 0.1-10.4 0.1-3.2 2-0.7-5.2-1.9 3.2-6.6 0-0.1-1.2 0.7-2.4 3-9.3 5.7-19.8 2.4-8.2-4.9-10.9 5.7-14.1 20.6-11.7 11.6 0.2 4.6 1.1 4.3-1.6 3.7 2 5.8-1.6 27.9 0.2 0 3.4 4.6-3.5 8.8 0.2 1.4 10.9-1.2 16.3 1.2 32-0.1 17.5z" id="98117" name="98117">
  </path>
  <path d="M645.4 290l-7.4-2.4-25.8 1-1.8-11.6-1.8-5-2.3-0.1 1.5 5.4-16.7 0.1-5-4.7 2.4 7.7-4.5-0.3-0.1-2.7-10.7 1.2-18.3-1.5-55.9-0.6 0-5.4-2.6-0.1-1.5 5.3-0.6-25.7 2.8-7.1-1.5-21.7 0.2-21.9-2.8-1.4 2.7-4.1 0-16.5 10.8 0.1 99.7 1 0 0.7 1.6 19.8 3.4 19.5 5.6 19.1 7.9 18.2 9.2 17.5 11.5 16.2z" id="98125" name="98125">
  </path>
  <path d="M389.1 709.4l2.7-0.2-2.7-5.2 0.1-10.9 2.7 0 0-5.4-2.9 0 0-5.2 2.9-5.9-1.5-5.5-1.1-16.2 0.3-16.8-2.1 0.1 6.5-11.3-1.9-9.2-4.1-2.4 0.7-3.1-4.1-12.7-1.7-2.3-3.9-1.2-4.7 2.4 3.3-4 7.5 3.7 3.5 1.7 1.1 10.7 1.4 1.9 10.3 13.7 10.6 6.3 3.3-5.4 13 3.2 1.3-1.3-1.1 6.1-11.3 0.2-10.6 2.6 0.7 7.8 2.1 5.6 1.5 15.2 9.3 0.2 7.8 1.3 0.1 3.3-4.3 1.6-2.2 3.9 0 10.8-13.5 0.1-2.2 7.4-6.1 0.6-0.1 10.2 1.6 2.2 0.7 12.4 13.6 0-0.1 11.3 5.8 0-0.3 30.5-6.4-1.6 4.2 5.7-1.3 1.7 2.1 7.2 4 0.1 0.6 5.4-3.3 0-0.1 5.5-2.7 0-0.1 10.8-8.2 0 0 5.4 2.8 0-0.1 5.4 11 0-2.7 9-0.1 13-3.7-0.1 1 10.4-2.5 4.9-5.2 0-0.2-4.2-11.4-0.1-3-1.7-7.4 1.6 0.6-20.9 1.7-6.5-2.7-0.1 1.8-54.9-1.4-16.2 0.3-10.9 2.7 0.1-0.8-16.4-1.5 0.1 0.1-5.5z" id="98126" name="98126">
  </path>
  <path d="M435.3 46.2l5 0 42.4 0 10.9 0.4-0.6 43.4-0.4 9.1 1.9 7.5-2.1 13.4 2.9 10.7 0.3 7.2-1.5 12.4 1.5 5.7-1.9 0.6 1.7 3.9 0.3 17.4 0 16.5-2.7 4.1 2.8 1.4-0.2 21.9 1.5 21.7-2.8 7.1 0.6 25.7-1.4 0-1.2-5.3-6.8-0.1-0.7 2.5-1.6 3-24.9-0.1-2.1 1.7-3.4-1.7-16.3-0.1 5.4-2.2 0-4.3-10.8-0.1 0-2.1 5.8 0-0.5-13.2 2.7 0-1.9-5.8 0.6-16-1.6-16.5 2.8 0.1-2.8-11 0-21.9-1.9-5.4 7.3 0-0.1-21.9-6.5-0.1-0.1-10.9 6.5 0-4.3-3.8-7.4-1.3-5.3-5.1-6.5-2.1-3-4.2-4.4-1.3 2.8-5.6 9.1-4.3 1.2-4.2 6.7-1 0 6.8 5.6 6.8 3-7.7-0.3-4.6-2.8-0.2 0.1-28.3 1.8-5.7-2 0-0.1-10.9 2.1-1.9 0.4-13.2-1.9 0-0.9-6.9z" id="98133" name="98133">
  </path>
  <path d="M515.2 594.1l-2.6 10.7 0.4 2.9 6.2 3.9-1.4 10.9 1.4 8-5.6-7.1 2.2 20.6-1.9 9.8-0.4 10.6-1.5 15.7-1-7.9-5.5 0.1-3.9-2.5-1.6 3.6 0.1 7.8-5.4-0.9-0.3 34.5-11.7-0.1 0 6.7-3.3 0.1 3.6 10-6.3 0.7 0.3-17.7-9.4-1.4-9.1-20.4-0.4-7 4.8-17.3-2.3 0.4-0.5 5.1-4.8-0.5-7.8-5.8-3.6 0-10.5-10.2-0.8-31.5 3-2.9 5.3-3.4 4-1.7 2.2-1 6.3-2.8 6.7-3 0.6-0.3 6.5-2.9 7-23.7 4.6-0.3 3.4 0 0.1 4.2 4.5 7.6 0.1 8.7 8.5 0 0-15.6 2.3 0.1 0.4 5.2 17.1 0z" id="98134" name="98134">
  </path>
  <path d="M359.9 840.6l8.3-0.2 2.6 5.1-0.5-5.1 18 0.2 7.4-1.6 3 1.7 11.4 0.1 0.2 4.2 5.2 0 2.5-4.9 2.7 0.7 42.7-0.4 3 1.7 7.4-1.7-0.5-6.2 4.9-4.1 1 10.1 6.1 0.1 0.8 10.4-2.2 0.1 2.2 5.4 0 16.2-3.4 0.1 0 5.6 3.3-0.1-0.1 14.9-2.3 0 0 5.2 2.2 0-0.1 39.9-56.2 0.5 0.4-0.9-0.6-11.5-7.3-9.5-6.7-11.7-14.4-12.3-22.3-17.4-14.8-22.4-3.9-12.2z" id="98146" name="98146">
  </path>
  <path d="M529.1 439.6l4 0.2-0.8 12-5.1 0.2-1 2.6-1.2 1.6 1.9 1.9 0.8 3.1-1.1 1-4-5.6-4.7-3.1 0 5.2 3.9 0.3 0 3.6 1.6 6.9-4.3 0 0.3 3.6 7.3 0.2 2.3 6.7-2.1 5.9-6.1-0.1-3.2 5.9 0.1 4.3 7 0.1-2.2 12.5 0.1 16.5-10.6 0.1-6.4 0.7-0.5-3.2-7.3 3.2-0.9 0.1 0.1-29.1 8.5-12.4-5.9-0.6-7-5.6 6.1 2.1-1.1-4.5-5-3.3 1.5-10.6-15.9 0.1 22.3-31.9 8.7-8.2 4.7 0.6 13.9 16.9 1.3 0.1z" id="98102" name="98102">
  </path>
  <path d="M487.6 563.2l-1.4-2.1 20.3-12.6 0.9-3.5 2.7 4.3 2.1-1.3 0 2.9-5.3 3.3 1.3 2.2 2.8-2 0.8 2.7-2.3 1.4 1.3 2.1 1.4-0.8 0 16.6 7.7 2.6-0.5 1.7-0.1 13.4-4.1 0-17.1 0-0.4-5.2-2.3-0.1 0 15.6-8.5 0-0.1-8.7-4.5-7.6-0.1-4.2-3.4 0-4.6 0.3-5.7-15.6 1.2-2.8 1.6 0.6 3.3 1.5 0.4 0.1 9-5.5 3.6 0.7 1.3 2.2 2.2-1.4-1.3-2.2-2.2 1.4z m-6.8 4.2l1.3 2.2 2.3-1.4-1.3-2.2-2.3 1.4z" id="98104" name="98104">
  </path>
  <path d="M418 840.1l-1-10.4 3.7 0.1 0.1-13 2.7-9-11 0 0.1-5.4-2.8 0 0-5.4 8.2 0 0.1-10.8 2.7 0 0.1-5.5 3.3 0-0.6-5.4-4-0.1-2.1-7.2 1.3-1.7-4.2-5.7 6.4 1.6 0.3-30.5-5.8 0 0.1-11.3-13.6 0-0.7-12.4-1.6-2.2 0.1-10.2 6.1-0.6 2.2-7.4 13.5-0.1 0-10.8 2.2-3.9 4.3-1.6-0.1-3.3-7.8-1.3-9.3-0.2-1.5-15.2-2.1-5.6-0.7-7.8 10.6-2.6 11.3-0.2 1.1-6.1 3-3 0.8 31.5 10.5 10.2 3.6 0 7.8 5.8 4.8 0.5 0.5-5.1 2.3-0.4-4.8 17.3 0.4 7 9.1 20.4 8.8 30 7 10.2-2.6 2.1-1.7 7.1 4.1 1.8 0.7 27.1 2 10.5-2.2 3.7 0.9 13.8 1 3 2.7 7.8-10.1-0.1-4.9 4.1 0.5 6.2-7.4 1.7-3-1.7-42.7 0.4-2.7-0.7z" id="98106" name="98106">
  </path>
  <path d="M431.6 422.4l12.3 8.9 15 9.7 17.7 21.7 1.6-0.6 15.9-0.1-1.5 10.6 5 3.3 1.1 4.5-6.1-2.1 7 5.6 5.9 0.6-8.5 12.4-0.1 29.1-3.2 0.1-9-0.3-37.5-0.2-2.1 2.7-7.1-2.7-1.4-10.6 2.7 0.1 0.1-15.3-2.7 0 0.2-12.4-0.8-14 2.7 0 0.1-10.9-2.7 0 0-5.6 2.7 0 0.1-16.4-1.7-10.5 1 0-7.2-4.2 0.5-3.4z" id="98109" name="98109">
  </path>
  <path d="M587.3 851.9l10.5 0.4 0.1-6.5 6.7 2.6 10.4 0.6 0 0.4 4.9 0 0-3 5.9 0-0.1 6.6 5.4-0.2 0.1-6.6 5.4 5.3 0-4.7 14.3 0.1 1.6-3 4.3 4.6 2.2 7.3 0-8.7-4.4-5 20.7-19.8 9.3 6.3 20.9-10.9 10.7 30 7.1 30.2-5.1 0.9-0.9 9.8-2.8-0.6-2.7 3.6 0.7 4.4 4.7 0.1-0.7 5.5-6-0.2-0.2 7.8-9.2-0.1 0 4.6 4.6 1.5-0.5 5.1-4.1 0.6-0.1 7.3 5.7 3.8 6.4-0.3 3.7 6.6-23-4.5-3.2 8.9-6.1-3.7-14.3-0.9-5.6-2.4-0.5 6.4-7.9 0-7.4 1.6-2.4-1.6-7.5-12.7-2 0 2.9 3.5 8.5 16.3 5.5 7.9-1.3 0.4-7.1-6.7-7.1-1.3 0.8-3.9 4.9-0.6-1.7-5.2-6.7-1.7-2.6-2.7 4.1-4.3-3.9-3.1-4.1-0.2-9 7-2.1-4.9 2.9-5.2 3.9-3-1.8-6.3-3.5-1.2-4.6 1.6-2.3-5.5-4.3-2.7-13.8 3.7 1.3-6.5-0.5-8.5 1.9-14.7 2.1-3.5 13.7 16.8 1.5 0.4 0-2.5-15.4-21.5-9.6-12.6-2.2-6.8z" id="98178" name="98178">
  </path>
  <path d="M443.9 431.3l-10-8.2 3.5 1.6 0.9-6-0.4-36.8 1.8-11.8-2.4-1.1 0.5-16.1 0.1-17.5-1.2-32 1.2-16.3-1.4-10.9 16.3 0.1 3.4 1.7 2.1-1.7 24.9 0.1 1.6-3 0.7-2.5 6.8 0.1 1.2 5.3 1.9 23.8-0.1 7.2-0.1 2.3 2 5.8 3.8 5-4.2-0.2 0.1 10.9-2.6 1.8 6.4 4.9 1.5 3.9-7.7 6.5-0.3 4.8 3 0.1-0.1 11 0 2.1-0.1 11.1-2.6 0 2.5 5.7 0 24.7 0.8 12.5-2.4 3.6-4.6 5.2 2-0.7 5.1-6.4 2-1.6 0.7 9.9-22.3 31.9-1.6 0.6-17.7-21.7-15-9.7z" id="98103" name="98103">
  </path>
  <path d="M347.4 711.6l6.8-2.4 34.9 0.2-0.1 5.5 1.5-0.1 0.8 16.4-2.7-0.1-0.3 10.9 1.4 16.2-1.8 54.9 2.7 0.1-1.7 6.5-0.6 20.9-18-0.2 0.5 5.1-2.6-5.1-8.3 0.2-1.3-4.4-4.6-6.7 7.3-8 2.5-14.1-14.5-15.3 1-1.8 3.9-7.5 4-7.4-5.5-31.1 2.2-12.9-7.5-19.8z" id="98136" name="98136">
  </path>
  <path d="M544.8 438.9l0.1-4.9-15.4-11.4-0.4 17-1.3-0.1-13.9-16.9-4.7-0.6-8.7 8.2-0.7-9.9-2 1.6-5.1 6.4-2 0.7 4.6-5.2 2.4-3.6-0.8-12.5 0-24.7-2.5-5.7 2.6 0 0.1-11.1 5.4 0.1 0.1-2.2 13.2 0.2 3.3-0.2 8.8 3.2 2.2-2.7 0-5.6 3.1 0 7.9 4.1 0 5.8 4.8 1.7 1.5 6.3 4.5-1.5 0-4.8-3.6-6 20.9-0.1 0 5.5 2.4 0 0-5.5 24.2 0 9.8-3.4-0.9 4.5 2.6-1.1 35.6 0.2 5.8-7.3 7.1 4.4 36.5 27.9-4.1 5.5-8.1 7.5-16.2 10-10.4 8.4-4.7 5.8-7.2 12.6-57-0.9-30.9 0.5-8.9-0.2z" id="98105" name="98105">
  </path>
  <path d="M513.5 664.4l0.2 11.5 0.8-4.2 6.5-0.5 2.1 3.4 3.9 0.1 0.1-6.2 4.1-2.6 19.5 0 0 2.9 5.3 4.2 0-9 4.9 1.7 0 1.3 2.4 5.1 7-1 1.9 16.8 0.3 11.6-4.4-0.2 3.6 8.9-0.3 2.5 0.1 38-2.6 0.4 0 4.8 3.6 3.9-4.7 0 0 3.1 5.5-1.3-1.8 5.6-9.3-0.3 6.1 6 3.5-0.1-0.5 3.9 4.9 8-3.3-0.1-2.9 18.1-1.9-6.7-2.6-3.1-3.3 1 4.9 16.6 4.8 0 0 38.5-3.7 2.4-3.3 0.4-9.4-4.4-6.7-0.1-2.9-2.2-6.7-0.1-7.8-8.1 0.9 6.8-7.9-1.3-39.1-0.1-6.1-0.1-1-10.1 10.1 0.1-2.7-7.8-1-3-0.9-13.8 2.2-3.7-2-10.5-0.7-27.1-4.1-1.8 1.7-7.1 2.6-2.1-7-10.2-8.8-30 9.4 1.4-0.3 17.7 6.3-0.7-3.6-10 3.3-0.1 0-6.7 11.7 0.1 0.3-34.5 5.4 0.9-0.1-7.8 1.6-3.6 3.9 2.5 5.5-0.1 1 7.9 1.5-15.7z" id="98108" name="98108">
  </path>
  <path d="M570.3 671.1l2.8 1.3 15.9 0 0-2.7 10.5 1.9 2.1-2.2 31.4-16.1 5.2 3.6 15.1 6.7 7.1 6.5 7.1 9.4 2.8 5.2 3.8 11.1 1 5.9 0.2 11.8-1.8 12.4-1.9 6.1-5.7 11.4-3.7 5.2-9 9.3-3.7 5.4-3.3 9.4-0.6 6.7 1.4 10.6 3.3 8.9 2.9 5.1 10.3 10.1 11.8 8.2-20.7 19.8 4.4 5 0 8.7-2.2-7.3-4.3-4.6-1.6 3-14.3-0.1 0 4.7-5.4-5.3-0.1 6.6-5.4 0.2 0.1-6.6-5.9 0 0 3-4.9 0 0-0.4-10.4-0.6-6.7-2.6-0.1 6.5-10.5-0.4-15.5-0.5 0.1-4.4 0-38.5-4.8 0-4.9-16.6 3.3-1 2.6 3.1 1.9 6.7 2.9-18.1 3.3 0.1-4.9-8 0.5-3.9-3.5 0.1-6.1-6 9.3 0.3 1.8-5.6-5.5 1.3 0-3.1 4.7 0-3.6-3.9 0-4.8 2.6-0.4-0.1-38 0.3-2.5-3.6-8.9 4.4 0.2-0.3-11.6-1.9-16.8z" id="98118" name="98118">
  </path>
 </g>
 <g id="points">
  <circle class="47.48996370109157|-122.42592434999997" cx="299" cy="912" id="0">
  </circle>
  <circle class="47.61120930982412|-122.31575784999995" cx="522.3" cy="547.8" id="1">
  </circle>
  <circle class="47.76276632073981|-122.22762464999994" cx="701" cy="91.4" id="2">
  </circle>
 </g>
 <g id="label_points">
  <circle class="98199" cx="345.2" cy="427.1" id="98199">
  </circle>
  <circle class="98195" cx="535.6" cy="433.4" id="98195">
  </circle>
  <circle class="98107" cx="396" cy="378.5" id="98107">
  </circle>
  <circle class="98121" cx="462" cy="538.6" id="98121">
  </circle>
  <circle class="98154" cx="486.1" cy="562.1" id="98154">
  </circle>
  <circle class="98119" cx="412.8" cy="460.5" id="98119">
  </circle>
  <circle class="98144" cx="570.9" cy="624.1" id="98144">
  </circle>
  <circle class="98174" cx="482.6" cy="567.8" id="98174">
  </circle>
  <circle class="98164" cx="489.3" cy="563.6" id="98164">
  </circle>
  <circle class="98101" cx="486.3" cy="545" id="98101">
  </circle>
  <circle class="98115" cx="592.4" cy="320.9" id="98115">
  </circle>
  <circle class="98177" cx="411.4" cy="82.9" id="98177">
  </circle>
  <circle class="98112" cx="565.5" cy="481.8" id="98112">
  </circle>
  <circle class="98122" cx="565.4" cy="550.7" id="98122">
  </circle>
  <circle class="98116" cx="361.6" cy="667.2" id="98116">
  </circle>
  <circle class="98117" cx="389.1" cy="315.1" id="98117">
  </circle>
  <circle class="98125" cx="558.1" cy="228" id="98125">
  </circle>
  <circle class="98126" cx="401.5" cy="743.1" id="98126">
  </circle>
  <circle class="98133" cx="468.1" cy="165" id="98133">
  </circle>
  <circle class="98134" cx="482.7" cy="643.5" id="98134">
  </circle>
  <circle class="98146" cx="450.3" cy="889.4" id="98146">
  </circle>
  <circle class="98102" cx="507.4" cy="467.3" id="98102">
  </circle>
  <circle class="98104" cx="500.7" cy="573.1" id="98104">
  </circle>
  <circle class="98106" cx="448.5" cy="751.4" id="98106">
  </circle>
  <circle class="98109" cx="462.2" cy="490.4" id="98109">
  </circle>
  <circle class="98178" cx="656.9" cy="895.5" id="98178">
  </circle>
  <circle class="98103" cx="467.4" cy="363.9" id="98103">
  </circle>
  <circle class="98136" cx="373.9" cy="771.2" id="98136">
  </circle>
  <circle class="98105" cx="586.6" cy="401.6" id="98105">
  </circle>
  <circle class="98108" cx="522.7" cy="757.2" id="98108">
  </circle>
  <circle class="98118" cx="612.9" cy="737.3" id="98118">
  </circle>
 </g>
</svg>